
<svg width="160px" height="46px" viewBox="0 0 160 46" version="1.1" xmlns="http://www.w3.org/2000/svg" xmlns:xlink="http://www.w3.org/1999/xlink">
    <g id="Homepage" stroke="none" stroke-width="1" fill="none" fill-rule="evenodd">
        <g id="Desktop-HD" transform="translate(-641.000000, -90.000000)" fill="#F7E714" fill-rule="nonzero">
            <g id="relize" transform="translate(641.000000, 90.000000)">
                <path d="M20.8316008,18.345679 C19.2931393,18.345679 17.9417879,19.3333333 16.7775468,21.308642 C15.6133056,23.2839506 15.031185,25.6296296 15.031185,28.345679 L15.031185,44.8888889 L19.4594595,44.8888889 L19.4594595,46 L0,46 L0,44.8888889 L3.43035343,44.8888889 L3.43035343,17.7283951 L0,17.7283951 L0,16.617284 L15.031185,16.617284 L15.031185,22.5432099 C15.5717256,20.4444444 16.6112266,18.8395062 18.1496881,17.7283951 C19.6881497,16.5761317 21.4345114,16 23.3887734,16 C25.3430353,16 26.9230769,16.5555556 28.1288981,17.6666667 C29.3762994,18.7366255 30,20.2798354 30,22.2962963 C30,24.2716049 29.5426195,25.7942387 28.6278586,26.8641975 C27.7130977,27.9341564 26.2993763,28.4691358 24.3866944,28.4691358 C22.5155925,28.4691358 21.1226611,27.8518519 20.2079002,26.617284 C19.3347193,25.382716 19.2307692,23.6748971 19.8960499,21.4938272 L22.1413721,21.4938272 C23.1808732,19.3950617 22.7442827,18.345679 20.8316008,18.345679 L20.8316008,18.345679 Z" id="path182675"></path>
                <path d="M45.7402056,46 C40.4934704,46 36.5482509,44.6693548 33.9045471,42.0080645 C31.3015157,39.3064516 30,35.5766129 30,30.8185484 C30,26.0201613 31.4642052,22.3508065 34.3926155,19.8104839 C37.3616982,17.2701613 41.123892,16 45.679197,16 C54.911824,16 59.3451119,20.5967742 58.9790606,29.7903226 L41.7746499,29.7903226 L41.7746499,32.1491935 C41.7746499,36.1008065 42.2830545,39.0846774 43.2998636,41.1008065 C44.3166728,43.1169355 46.0859207,44.125 48.6076073,44.125 C53.3256018,44.125 56.4167016,41.625 57.8809067,36.625 L58.9790606,36.8064516 C58.2062857,39.7096774 56.8030891,41.9677419 54.7694708,43.5806452 C52.7765248,45.1935484 49.7667698,46 45.7402056,46 L45.7402056,46 Z M41.8356584,28.5806452 L48.119539,28.5806452 L48.119539,25.6169355 C48.119539,22.3508065 47.9161771,20.1330645 47.5094535,18.9637097 C47.1434022,17.7540323 46.3706272,17.1491935 45.1911286,17.1491935 C44.0523024,17.1491935 43.1981827,17.7943548 42.6287696,19.0846774 C42.1000288,20.3346774 41.8356584,22.5120968 41.8356584,25.6169355 L41.8356584,28.5806452 Z" id="path182677"></path>
                <polygon id="path182679" points="60 0 75.4651163 0 75.4651163 44.896 79 44.896 79 46 60.2524917 46 60.2524917 44.896 63.7242525 44.896 63.7242525 1.104 60 1.104"></polygon>
                <path d="M90.5315615,12.4500684 C88.3012182,12.4500684 86.7021041,11.8960328 85.7342193,10.7879617 C84.8084164,9.67989056 84.345515,8.30506156 84.345515,6.66347469 C84.345515,5.02188782 84.8504983,3.66757866 85.8604651,2.6005472 C86.9125138,1.53351573 88.4905869,1 90.5946844,1 C92.6987818,1 94.2978959,1.49247606 95.3920266,2.47742818 C96.4861573,3.42134063 97.0332226,4.79616963 97.0332226,6.60191518 C97.0332226,8.36662107 96.5071982,9.78248974 95.4551495,10.8495212 C94.4031008,11.9165527 92.7619048,12.4500684 90.5315615,12.4500684 Z M81,16.6976744 L96.4651163,16.6976744 L96.4651163,44.8919289 L100,44.8919289 L100,46 L81.2524917,46 L81.2524917,44.8919289 L84.7242525,44.8919289 L84.7242525,17.8057456 L81,17.8057456 L81,16.6976744 Z" id="path182681"></path>
                <path d="M128,17 L128,18.0966387 L113.42369,44.9033613 L114.223235,44.9033613 C117.667426,44.9033613 120.373576,44.0098039 122.341686,42.2226891 C124.309795,40.4355742 125.84738,37.5315126 126.954442,33.5105042 L127.81549,33.5105042 L126.831435,46 L101,46 L101,45.0861345 L115.822323,18.0966387 L115.145786,18.0966387 C111.004556,18.0966387 108.113895,18.7668067 106.473804,20.1071429 C104.874715,21.447479 103.439636,24.3109244 102.168565,28.697479 L101.369021,28.697479 L102.168565,17 L128,17 Z" id="path182683"></path>
                <path d="M146.740206,46 C141.49347,46 137.548251,44.6693548 134.904547,42.0080645 C132.301516,39.3064516 131,35.5766129 131,30.8185484 C131,26.0201613 132.464205,22.3508065 135.392616,19.8104839 C138.361698,17.2701613 142.123892,16 146.679197,16 C155.911824,16 160.345112,20.5967742 159.979061,29.7903226 L142.77465,29.7903226 L142.77465,32.1491935 C142.77465,36.1008065 143.283054,39.0846774 144.299864,41.1008065 C145.316673,43.1169355 147.085921,44.125 149.607607,44.125 C154.325602,44.125 157.416702,41.625 158.880907,36.625 L159.979061,36.8064516 C159.206286,39.7096774 157.803089,41.9677419 155.769471,43.5806452 C153.776525,45.1935484 150.76677,46 146.740206,46 L146.740206,46 Z M142.835658,28.5806452 L149.119539,28.5806452 L149.119539,25.6169355 C149.119539,22.3508065 148.916177,20.1330645 148.509453,18.9637097 C148.143402,17.7540323 147.370627,17.1491935 146.191129,17.1491935 C145.052302,17.1491935 144.198183,17.7943548 143.62877,19.0846774 C143.100029,20.3346774 142.835658,22.5120968 142.835658,25.6169355 L142.835658,28.5806452 Z" id="path182685"></path>
            </g>
        </g>
    </g>
</svg>